<svg width="34" height="34" viewBox="0 0 34 34" fill="none" xmlns="http://www.w3.org/2000/svg">
<path d="M0.5 17C0.5 7.8873 7.8873 0.5 17 0.5C26.1127 0.5 33.5 7.8873 33.5 17C33.5 26.1127 26.1127 33.5 17 33.5C7.8873 33.5 0.5 26.1127 0.5 17Z" stroke="#191919"/>
<path d="M15.6094 18.4644C15.6094 19.0526 15.5417 19.5752 15.4062 20.0322C15.2708 20.485 15.0762 20.8659 14.8223 21.1748C14.5684 21.488 14.2573 21.7249 13.8892 21.8857C13.521 22.0465 13.0999 22.127 12.626 22.127C12.1562 22.127 11.7352 22.0487 11.3628 21.8921C10.9904 21.7313 10.6751 21.4922 10.417 21.1748C10.1589 20.8659 9.96208 20.485 9.82666 20.0322C9.69124 19.5752 9.62354 19.0526 9.62354 18.4644V16.2998C9.62354 15.7116 9.69124 15.1911 9.82666 14.7383C9.96208 14.2812 10.1589 13.8962 10.417 13.583C10.6709 13.2699 10.9819 13.0329 11.3501 12.8721C11.7225 12.707 12.1436 12.6245 12.6133 12.6245C13.0872 12.6245 13.5083 12.707 13.8765 12.8721C14.2489 13.0329 14.5641 13.2699 14.8223 13.583C15.0762 13.8962 15.2708 14.2812 15.4062 14.7383C15.5417 15.1911 15.6094 15.7116 15.6094 16.2998V18.4644ZM10.8042 18.2295L14.4033 15.4683C14.3695 15.1636 14.3081 14.8949 14.2192 14.6621C14.1346 14.4251 14.0182 14.2284 13.8701 14.0718C13.7262 13.911 13.5485 13.7904 13.3369 13.71C13.1296 13.6296 12.8883 13.5894 12.6133 13.5894C12.334 13.5894 12.0864 13.6338 11.8706 13.7227C11.659 13.8073 11.4792 13.9321 11.3311 14.0972C11.1533 14.3045 11.02 14.5732 10.9312 14.9033C10.8465 15.2292 10.8042 15.6079 10.8042 16.0396V17.5884C10.8042 17.6942 10.8042 17.8 10.8042 17.9058C10.8042 18.0116 10.8042 18.1195 10.8042 18.2295ZM14.4287 18.7119V17.4043C14.4287 17.3408 14.4287 17.2202 14.4287 17.0425C14.4287 16.8605 14.4287 16.7103 14.4287 16.5918L10.8359 19.3403C10.874 19.6493 10.9417 19.9222 11.0391 20.1592C11.1364 20.3919 11.2633 20.5845 11.4199 20.7368C11.5638 20.8807 11.7373 20.9907 11.9404 21.0669C12.1436 21.1388 12.3721 21.1748 12.626 21.1748C12.8926 21.1748 13.1296 21.1346 13.3369 21.0542C13.5443 20.9738 13.7199 20.8574 13.8638 20.7051C14.0584 20.4977 14.2002 20.2269 14.2891 19.8926C14.3822 19.5583 14.4287 19.1647 14.4287 18.7119ZM21.9238 22H20.7495V14.2559L18.3311 15.1763V14.1035L21.8286 12.7578H21.9238V22Z" fill="#191919"/>
</svg>
