<svg width="61" height="61" viewBox="0 0 61 61" fill="none" xmlns="http://www.w3.org/2000/svg">
<g clip-path="url(#clip0_1_408)">
<path d="M30.0938 60.691C13.5508 60.691 0.09375 47.232 0.09375 30.691C0.09375 14.149 13.5508 0.688965 30.0938 0.688965C46.6367 0.688965 60.0938 14.148 60.0938 30.691C60.0938 47.233 46.6348 60.691 30.0938 60.691ZM30.0938 1.27796C13.8778 1.27796 0.68075 14.474 0.68075 30.691C0.68075 46.908 13.8778 60.102 30.0938 60.102C46.3118 60.102 59.5047 46.908 59.5047 30.691C59.5047 14.474 46.3118 1.27796 30.0938 1.27796ZM30.0938 54.63C16.8927 54.63 6.15575 43.89 6.15575 30.691C6.15575 17.491 16.8927 6.75296 30.0938 6.75296C43.2948 6.75296 54.0327 17.49 54.0327 30.691C54.0327 43.891 43.2928 54.63 30.0938 54.63ZM30.0938 7.34196C17.2197 7.34196 6.74475 17.816 6.74475 30.691C6.74475 43.566 17.2197 54.041 30.0938 54.041C42.9697 54.041 53.4437 43.565 53.4437 30.691C53.4437 17.818 42.9678 7.34196 30.0938 7.34196ZM30.0938 48.566C29.5098 48.566 28.9248 48.538 28.3428 48.48C27.7598 48.422 27.1818 48.338 26.6068 48.222C26.0328 48.108 25.4648 47.966 24.9048 47.797C24.3438 47.627 23.7938 47.43 23.2537 47.205C22.7118 46.982 22.1828 46.732 21.6658 46.455C21.1508 46.18 20.6488 45.879 20.1618 45.554C19.6758 45.229 19.2058 44.88 18.7518 44.509C18.3008 44.138 17.8668 43.745 17.4517 43.331C17.0378 42.916 16.6458 42.484 16.2738 42.031C15.9028 41.579 15.5538 41.109 15.2288 40.621C14.9038 40.135 14.6038 39.634 14.3278 39.117C14.0507 38.601 13.8007 38.071 13.5778 37.531C13.3527 36.99 13.1558 36.44 12.9858 35.879C12.8168 35.318 12.6748 34.751 12.5608 34.178C12.4447 33.603 12.3607 33.025 12.3027 32.442C12.2448 31.859 12.2168 31.275 12.2168 30.689C12.2168 30.105 12.2448 29.52 12.3027 28.938C12.3587 28.355 12.4447 27.777 12.5588 27.202C12.6748 26.628 12.8148 26.061 12.9858 25.5C13.1558 24.941 13.3528 24.389 13.5758 23.849C13.8008 23.308 14.0507 22.778 14.3278 22.263C14.6027 21.746 14.9038 21.244 15.2288 20.758C15.5538 20.271 15.9028 19.802 16.2738 19.349C16.6448 18.896 17.0378 18.463 17.4517 18.049C17.8668 17.635 18.2988 17.243 18.7518 16.871C19.2038 16.499 19.6737 16.151 20.1618 15.826C20.6478 15.501 21.1488 15.199 21.6658 14.924C22.1818 14.648 22.7118 14.398 23.2518 14.174C23.7928 13.949 24.3427 13.752 24.9037 13.582C25.4648 13.413 26.0317 13.271 26.6047 13.157C27.1798 13.042 27.7577 12.956 28.3407 12.899C28.9237 12.841 29.5077 12.813 30.0917 12.813C30.6777 12.813 31.2627 12.841 31.8447 12.899C32.4277 12.956 33.0057 13.042 33.5807 13.156C34.1548 13.271 34.7217 13.412 35.2827 13.582C35.8418 13.752 36.3937 13.949 36.9338 14.173C37.4748 14.398 38.0047 14.648 38.5197 14.924C39.0367 15.199 39.5387 15.501 40.0247 15.826C40.5117 16.151 40.9808 16.499 41.4338 16.871C41.8867 17.243 42.3197 17.635 42.7337 18.049C43.1478 18.463 43.5397 18.896 43.9118 19.349C44.2838 19.802 44.6317 20.271 44.9567 20.758C45.2817 21.246 45.5837 21.747 45.8587 22.263C46.1348 22.78 46.3848 23.308 46.6087 23.849C46.8337 24.391 47.0308 24.941 47.2007 25.502C47.3697 26.061 47.5118 26.628 47.6258 27.203C47.7397 27.778 47.8258 28.356 47.8838 28.939C47.9417 29.522 47.9697 30.106 47.9697 30.691C47.9697 31.276 47.9397 31.861 47.8817 32.442C47.8237 33.025 47.7378 33.603 47.6227 34.176C47.5088 34.751 47.3668 35.318 47.1958 35.878C47.0258 36.437 46.8267 36.989 46.6037 37.529C46.3787 38.07 46.1287 38.598 45.8527 39.114C45.5777 39.629 45.2757 40.131 44.9507 40.617C44.6257 41.104 44.2778 41.573 43.9058 42.026C43.5358 42.477 43.1418 42.912 42.7277 43.324C42.3148 43.738 41.8807 44.132 41.4287 44.502C40.9757 44.874 40.5077 45.223 40.0197 45.548C39.5337 45.873 39.0327 46.174 38.5168 46.449C38.0008 46.726 37.4728 46.976 36.9328 47.201C36.3918 47.424 35.8408 47.623 35.2808 47.793C34.7217 47.963 34.1548 48.105 33.5798 48.219C33.0057 48.335 32.4277 48.421 31.8447 48.479C31.2638 48.537 30.6798 48.566 30.0938 48.566ZM30.0938 13.404C29.5278 13.404 28.9627 13.431 28.3997 13.487C27.8358 13.541 27.2768 13.624 26.7218 13.735C26.1658 13.846 25.6178 13.984 25.0758 14.148C24.5328 14.312 24.0018 14.502 23.4788 14.72C22.9548 14.935 22.4438 15.177 21.9438 15.445C21.4438 15.712 20.9597 16.002 20.4897 16.316C20.0177 16.632 19.5647 16.968 19.1257 17.327C18.6877 17.687 18.2697 18.066 17.8697 18.466C17.4677 18.866 17.0877 19.286 16.7288 19.724C16.3708 20.161 16.0338 20.616 15.7198 21.086C15.4038 21.557 15.1137 22.043 14.8457 22.541C14.5787 23.041 14.3388 23.552 14.1208 24.075C13.9038 24.599 13.7137 25.132 13.5498 25.672C13.3858 26.214 13.2478 26.763 13.1368 27.319C13.0278 27.874 12.9427 28.433 12.8888 28.997C12.8317 29.559 12.8057 30.125 12.8057 30.691C12.8057 31.258 12.8317 31.822 12.8888 32.386C12.9427 32.95 13.0258 33.509 13.1368 34.064C13.2478 34.618 13.3858 35.168 13.5498 35.709C13.7137 36.251 13.9038 36.784 14.1208 37.307C14.3368 37.829 14.5787 38.342 14.8457 38.84C15.1137 39.34 15.4037 39.824 15.7177 40.296C16.0337 40.767 16.3698 41.221 16.7288 41.659C17.0877 42.096 17.4678 42.515 17.8678 42.915C18.2698 43.316 18.6877 43.696 19.1257 44.056C19.5627 44.415 20.0177 44.751 20.4877 45.065C20.9587 45.38 21.4438 45.671 21.9428 45.938C22.4428 46.205 22.9537 46.446 23.4767 46.663C24.0007 46.88 24.5327 47.071 25.0737 47.235C25.6157 47.399 26.1648 47.537 26.7208 47.647C27.2748 47.757 27.8348 47.84 28.3988 47.896C28.9627 47.951 29.5267 47.979 30.0917 47.979C30.6597 47.979 31.2238 47.951 31.7878 47.896C32.3517 47.84 32.9108 47.757 33.4658 47.647C34.0218 47.537 34.5697 47.399 35.1107 47.235C35.6527 47.071 36.1858 46.88 36.7088 46.663C37.2327 46.446 37.7437 46.205 38.2417 45.938C38.7417 45.671 39.2257 45.38 39.6978 45.066C40.1678 44.751 40.6227 44.415 41.0607 44.056C41.4977 43.696 41.9167 43.316 42.3167 42.916C42.7178 42.515 43.0977 42.096 43.4567 41.659C43.8167 41.221 44.1528 40.767 44.4678 40.296C44.7817 39.824 45.0728 39.34 45.3397 38.84C45.6067 38.342 45.8478 37.831 46.0648 37.307C46.2817 36.784 46.4727 36.251 46.6367 35.709C46.8008 35.168 46.9378 34.618 47.0488 34.064C47.1588 33.509 47.2427 32.95 47.2977 32.386C47.3537 31.822 47.3807 31.258 47.3807 30.691C47.3807 30.125 47.3517 29.561 47.2957 28.997C47.2397 28.434 47.1567 27.875 47.0457 27.32C46.9347 26.764 46.7977 26.217 46.6317 25.675C46.4677 25.133 46.2777 24.602 46.0597 24.078C45.8428 23.557 45.6007 23.046 45.3338 22.546C45.0668 22.047 44.7757 21.561 44.4618 21.091C44.1478 20.621 43.8097 20.168 43.4507 19.73C43.0917 19.293 42.7118 18.872 42.3117 18.472C41.9117 18.073 41.4928 17.693 41.0558 17.333C40.6178 16.974 40.1647 16.638 39.6927 16.323C39.2227 16.009 38.7388 15.718 38.2397 15.451C37.7397 15.184 37.2297 14.941 36.7077 14.724C36.1838 14.507 35.6517 14.316 35.1107 14.152C34.5687 13.988 34.0198 13.849 33.4658 13.738C32.9108 13.627 32.3517 13.545 31.7887 13.488C31.2248 13.432 30.6607 13.404 30.0938 13.404ZM30.0938 42.504C29.7078 42.504 29.3217 42.485 28.9357 42.446C28.5517 42.409 28.1687 42.352 27.7887 42.277C27.4097 42.201 27.0347 42.107 26.6637 41.995C26.2937 41.882 25.9298 41.752 25.5737 41.604C25.2157 41.457 24.8657 41.292 24.5257 41.109C24.1827 40.926 23.8518 40.728 23.5298 40.513C23.2078 40.298 22.8977 40.068 22.5987 39.823C22.3007 39.576 22.0128 39.317 21.7397 39.043C21.4657 38.77 21.2068 38.484 20.9618 38.184C20.7157 37.885 20.4848 37.575 20.2708 37.253C20.0548 36.932 19.8568 36.6 19.6737 36.259C19.4907 35.918 19.3267 35.568 19.1787 35.211C19.0307 34.853 18.9008 34.489 18.7878 34.119C18.6758 33.748 18.5818 33.375 18.5068 32.995C18.4307 32.615 18.3738 32.233 18.3368 31.848C18.2978 31.462 18.2787 31.076 18.2787 30.689C18.2787 30.303 18.2978 29.917 18.3368 29.531C18.3738 29.147 18.4307 28.764 18.5058 28.384C18.5818 28.005 18.6758 27.631 18.7878 27.261C18.9008 26.891 19.0307 26.527 19.1787 26.169C19.3257 25.811 19.4907 25.463 19.6737 25.121C19.8568 24.78 20.0548 24.449 20.2698 24.127C20.4848 23.805 20.7147 23.494 20.9597 23.196C21.2048 22.896 21.4657 22.61 21.7397 22.336C22.0128 22.063 22.2987 21.804 22.5977 21.558C22.8977 21.311 23.2078 21.082 23.5287 20.866C23.8507 20.652 24.1828 20.454 24.5238 20.271C24.8647 20.088 25.2148 19.924 25.5718 19.776C25.9298 19.627 26.2927 19.497 26.6628 19.385C27.0328 19.272 27.4078 19.179 27.7878 19.102C28.1677 19.027 28.5497 18.971 28.9347 18.933C29.3207 18.894 29.7067 18.876 30.0917 18.876C30.4797 18.876 30.8658 18.894 31.2518 18.933C31.6358 18.971 32.0188 19.027 32.3988 19.102C32.7767 19.179 33.1518 19.272 33.5218 19.385C33.8918 19.497 34.2557 19.627 34.6138 19.776C34.9718 19.922 35.3198 20.088 35.6618 20.271C36.0028 20.454 36.3338 20.652 36.6558 20.866C36.9777 21.082 37.2887 21.311 37.5868 21.557C37.8867 21.804 38.1728 22.063 38.4468 22.336C38.7197 22.61 38.9788 22.896 39.2248 23.196C39.4697 23.494 39.7007 23.805 39.9147 24.127C40.1307 24.449 40.3288 24.78 40.5117 25.121C40.6947 25.463 40.8587 25.811 41.0067 26.169C41.1557 26.527 41.2858 26.891 41.3978 27.261C41.5107 27.631 41.6037 28.006 41.6787 28.386C41.7557 28.766 41.8118 29.148 41.8498 29.533C41.8888 29.919 41.9067 30.305 41.9067 30.691C41.9058 31.078 41.8867 31.464 41.8498 31.848C41.8107 32.233 41.7537 32.615 41.6777 32.995C41.6027 33.373 41.5077 33.748 41.3947 34.119C41.2827 34.489 41.1527 34.853 41.0037 35.209C40.8558 35.567 40.6898 35.915 40.5088 36.257C40.3258 36.598 40.1278 36.929 39.9118 37.251C39.6968 37.571 39.4667 37.882 39.2217 38.181C38.9757 38.481 38.7167 38.767 38.4437 39.04C38.1698 39.314 37.8838 39.573 37.5838 39.818C37.2858 40.063 36.9748 40.293 36.6548 40.509C36.3328 40.724 36.0018 40.923 35.6608 41.104C35.3188 41.287 34.9697 41.452 34.6128 41.601C34.2558 41.749 33.8918 41.879 33.5218 41.991C33.1518 42.104 32.7767 42.199 32.3988 42.274C32.0188 42.351 31.6358 42.407 31.2518 42.446C30.8668 42.484 30.4807 42.502 30.0938 42.504ZM30.0938 19.466C29.7267 19.466 29.3597 19.485 28.9937 19.521C28.6278 19.557 28.2638 19.61 27.9048 19.682C27.5438 19.754 27.1877 19.843 26.8358 19.949C26.4827 20.057 26.1378 20.18 25.7987 20.321C25.4578 20.461 25.1268 20.618 24.8018 20.791C24.4788 20.965 24.1628 21.154 23.8577 21.358C23.5518 21.561 23.2568 21.78 22.9727 22.014C22.6877 22.247 22.4158 22.494 22.1567 22.753C21.8958 23.014 21.6488 23.286 21.4158 23.571C21.1838 23.853 20.9648 24.149 20.7598 24.455C20.5548 24.761 20.3678 25.075 20.1947 25.4C20.0208 25.724 19.8627 26.056 19.7227 26.395C19.5817 26.735 19.4587 27.081 19.3517 27.433C19.2447 27.784 19.1547 28.141 19.0837 28.502C19.0117 28.863 18.9587 29.225 18.9228 29.591C18.8868 29.956 18.8678 30.323 18.8678 30.691C18.8678 31.059 18.8868 31.425 18.9228 31.792C18.9587 32.158 19.0117 32.52 19.0837 32.881C19.1547 33.242 19.2447 33.598 19.3507 33.95C19.4587 34.301 19.5817 34.647 19.7227 34.987C19.8627 35.326 20.0198 35.659 20.1928 35.983C20.3658 36.307 20.5548 36.622 20.7598 36.928C20.9648 37.232 21.1838 37.528 21.4158 37.812C21.6488 38.096 21.8958 38.368 22.1548 38.628C22.4158 38.889 22.6877 39.135 22.9727 39.368C23.2568 39.601 23.5508 39.82 23.8568 40.024C24.1628 40.229 24.4767 40.417 24.8018 40.59C25.1248 40.763 25.4577 40.921 25.7967 41.062C26.1357 41.203 26.4827 41.326 26.8347 41.432C27.1857 41.54 27.5427 41.629 27.9028 41.701C28.2638 41.773 28.6268 41.826 28.9918 41.862C29.3577 41.898 29.7247 41.917 30.0917 41.917C30.4607 41.917 30.8267 41.898 31.1938 41.862C31.5597 41.826 31.9217 41.773 32.2827 41.701C32.6437 41.629 32.9997 41.54 33.3517 41.432C33.7028 41.326 34.0477 41.203 34.3887 41.062C34.7277 40.921 35.0607 40.763 35.3838 40.59C35.7088 40.418 36.0228 40.229 36.3298 40.024C36.6338 39.82 36.9297 39.601 37.2137 39.368C37.4977 39.135 37.7697 38.889 38.0308 38.629C38.2897 38.368 38.5367 38.096 38.7697 37.812C39.0028 37.528 39.2218 37.234 39.4258 36.928C39.6308 36.622 39.8197 36.307 39.9917 35.983C40.1647 35.659 40.3228 35.326 40.4637 34.987C40.6037 34.647 40.7278 34.301 40.8338 33.95C40.9418 33.598 41.0308 33.242 41.1027 32.881C41.1747 32.52 41.2277 32.158 41.2637 31.792C41.2997 31.425 41.3177 31.059 41.3177 30.691C41.3177 30.323 41.2997 29.958 41.2637 29.591C41.2257 29.225 41.1727 28.863 41.1007 28.502C41.0277 28.142 40.9387 27.786 40.8327 27.434C40.7247 27.083 40.6007 26.738 40.4608 26.397C40.3198 26.058 40.1618 25.727 39.9888 25.402C39.8148 25.078 39.6278 24.764 39.4227 24.458C39.2188 24.153 38.9998 23.858 38.7668 23.574C38.5337 23.289 38.2867 23.018 38.0277 22.758C37.7667 22.497 37.4948 22.252 37.2118 22.018C36.9277 21.785 36.6328 21.566 36.3278 21.361C36.0218 21.158 35.7078 20.969 35.3828 20.796C35.0588 20.622 34.7277 20.465 34.3877 20.324C34.0477 20.183 33.7028 20.06 33.3517 19.952C32.9997 19.846 32.6437 19.757 32.2827 19.683C31.9237 19.611 31.5597 19.558 31.1938 19.521C30.8278 19.485 30.4627 19.466 30.0938 19.466ZM30.0938 36.442C29.7167 36.442 29.3418 36.406 28.9718 36.331C28.6017 36.257 28.2428 36.148 27.8937 36.004C27.5457 35.859 27.2127 35.683 26.8988 35.473C26.5858 35.264 26.2957 35.025 26.0287 34.758C25.7607 34.49 25.5217 34.2 25.3127 33.886C25.1038 33.572 24.9257 33.24 24.7817 32.892C24.6357 32.544 24.5288 32.183 24.4538 31.812C24.3798 31.442 24.3438 31.069 24.3438 30.691C24.3438 30.314 24.3798 29.939 24.4538 29.569C24.5288 29.198 24.6357 28.839 24.7817 28.491C24.9257 28.142 25.1038 27.809 25.3127 27.495C25.5217 27.183 25.7607 26.892 26.0287 26.625C26.2957 26.358 26.5858 26.119 26.8988 25.91C27.2127 25.7 27.5457 25.522 27.8937 25.378C28.2428 25.233 28.6017 25.125 28.9718 25.05C29.3418 24.977 29.7167 24.941 30.0938 24.941C30.4718 24.941 30.8447 24.977 31.2157 25.05C31.5877 25.125 31.9468 25.233 32.2948 25.378C32.6437 25.522 32.9748 25.7 33.2887 25.91C33.6027 26.119 33.8938 26.358 34.1608 26.625C34.4277 26.892 34.6668 27.183 34.8768 27.495C35.0858 27.809 35.2617 28.142 35.4077 28.491C35.5518 28.839 35.6607 29.198 35.7337 29.569C35.8088 29.939 35.8447 30.314 35.8447 30.691C35.8447 31.069 35.8078 31.442 35.7337 31.812C35.6587 32.183 35.5518 32.542 35.4058 32.89C35.2607 33.24 35.0837 33.572 34.8747 33.884C34.6637 34.198 34.4268 34.489 34.1587 34.756C33.8918 35.023 33.6017 35.261 33.2878 35.472C32.9748 35.681 32.6437 35.857 32.2938 36.003C31.9447 36.148 31.5858 36.256 31.2157 36.331C30.8447 36.404 30.4718 36.442 30.0938 36.442ZM30.0938 25.53C29.7547 25.53 29.4207 25.563 29.0877 25.628C28.7547 25.694 28.4327 25.792 28.1187 25.922C27.8067 26.052 27.5077 26.211 27.2267 26.399C26.9457 26.588 26.6847 26.802 26.4438 27.041C26.2048 27.281 25.9907 27.542 25.8018 27.824C25.6147 28.105 25.4548 28.403 25.3248 28.716C25.1958 29.028 25.0968 29.352 25.0317 29.684C24.9657 30.017 24.9328 30.352 24.9328 30.691C24.9328 31.03 24.9657 31.366 25.0317 31.698C25.0968 32.031 25.1958 32.353 25.3248 32.667C25.4548 32.98 25.6147 33.278 25.8018 33.559C25.9907 33.84 26.2048 34.101 26.4438 34.342C26.6847 34.581 26.9457 34.795 27.2267 34.983C27.5077 35.172 27.8067 35.331 28.1187 35.461C28.4327 35.59 28.7547 35.687 29.0877 35.754C29.4207 35.82 29.7547 35.853 30.0938 35.853C30.4328 35.853 30.7687 35.82 31.1017 35.754C31.4347 35.687 31.7558 35.59 32.0697 35.461C32.3828 35.331 32.6807 35.172 32.9627 34.983C33.2437 34.795 33.5047 34.581 33.7448 34.342C33.9837 34.101 34.1978 33.84 34.3857 33.559C34.5747 33.278 34.7337 32.98 34.8638 32.667C34.9938 32.353 35.0907 32.031 35.1577 31.698C35.2227 31.366 35.2557 31.03 35.2557 30.691C35.2557 30.352 35.2228 30.017 35.1558 29.684C35.0908 29.352 34.9918 29.03 34.8618 28.717C34.7327 28.403 34.5728 28.106 34.3857 27.825C34.1968 27.542 33.9827 27.281 33.7438 27.042C33.5028 26.803 33.2438 26.589 32.9608 26.4C32.6798 26.213 32.3828 26.053 32.0688 25.924C31.7558 25.794 31.4327 25.696 31.1017 25.63C30.7687 25.563 30.4328 25.53 30.0938 25.53Z" fill="#191919"/>
</g>
<defs>
<clipPath id="clip0_1_408">
<rect width="60" height="60" fill="white" transform="translate(0.09375 0.688965)"/>
</clipPath>
</defs>
</svg>
