<svg width="61" height="61" viewBox="0 0 61 61" fill="none" xmlns="http://www.w3.org/2000/svg">
<g clip-path="url(#clip0_1_419)">
<path d="M59.777 30.414C57.843 30.419 55.927 30.234 54.029 29.859C52.132 29.484 50.29 28.927 48.502 28.187C46.715 27.447 45.018 26.539 43.412 25.462C41.804 24.384 40.318 23.161 38.954 21.789C37.584 20.425 36.359 18.939 35.282 17.333C34.206 15.725 33.298 14.028 32.557 12.242C31.817 10.455 31.26 8.61197 30.885 6.71396C30.51 4.81697 30.326 2.89996 30.331 0.965965C30.331 0.890965 30.304 0.824965 30.249 0.769965C30.196 0.716965 30.131 0.688965 30.054 0.688965C29.977 0.688965 29.913 0.716965 29.859 0.769965C29.804 0.824965 29.777 0.890965 29.777 0.965965C29.782 2.89996 29.598 4.81697 29.223 6.71396C28.849 8.61197 28.291 10.455 27.551 12.242C26.81 14.028 25.902 15.725 24.826 17.333C23.749 18.939 22.524 20.425 21.154 21.789C19.79 23.161 18.304 24.384 16.698 25.462C15.09 26.539 13.393 27.447 11.606 28.187C9.81995 28.927 7.97596 29.484 6.07896 29.859C4.18095 30.234 2.26496 30.419 0.330955 30.414C0.253955 30.414 0.187955 30.441 0.134955 30.494C0.0809551 30.548 0.0539551 30.614 0.0539551 30.689C0.0539551 30.766 0.0809551 30.831 0.134955 30.886C0.187955 30.939 0.253955 30.966 0.330955 30.966C2.26496 30.961 4.18095 31.145 6.07896 31.52C7.97596 31.895 9.81796 32.453 11.606 33.194C13.393 33.933 15.09 34.842 16.696 35.919C18.304 36.995 19.79 38.219 21.154 39.591C22.524 40.955 23.749 42.441 24.826 44.047C25.902 45.655 26.81 47.352 27.551 49.137C28.291 50.925 28.849 52.767 29.223 54.666C29.598 56.562 29.782 58.48 29.777 60.414C29.777 60.489 29.804 60.555 29.859 60.609C29.913 60.662 29.977 60.689 30.054 60.689C30.131 60.689 30.196 60.662 30.249 60.609C30.304 60.555 30.331 60.489 30.331 60.414C30.331 44.176 43.54 30.966 59.777 30.966C59.854 30.966 59.92 30.939 59.973 30.886C60.027 30.831 60.054 30.766 60.054 30.689C60.054 30.614 60.027 30.548 59.973 30.494C59.92 30.441 59.854 30.414 59.777 30.414ZM30.054 56.322C29.837 54.709 29.488 53.128 29.012 51.573C28.535 50.019 27.934 48.514 27.21 47.058C26.487 45.603 25.649 44.216 24.699 42.897C23.748 41.578 22.696 40.345 21.543 39.198C20.398 38.047 19.166 36.995 17.848 36.045C16.531 35.095 15.145 34.258 13.69 33.534C12.235 32.811 10.731 32.211 9.17896 31.734C7.62596 31.256 6.04296 30.908 4.43396 30.689C6.04496 30.472 7.62596 30.123 9.17896 29.645C10.732 29.169 12.235 28.569 13.691 27.845C15.146 27.12 16.532 26.284 17.849 25.333C19.168 24.383 20.399 23.331 21.545 22.18C22.698 21.034 23.748 19.801 24.699 18.484C25.649 17.167 26.485 15.78 27.209 14.325C27.934 12.87 28.534 11.367 29.01 9.81396C29.488 8.26096 29.835 6.67997 30.054 5.06996C30.273 6.67997 30.621 8.26096 31.098 9.81396C31.574 11.367 32.176 12.87 32.899 14.325C33.623 15.78 34.459 17.167 35.41 18.484C36.36 19.801 37.412 21.034 38.563 22.18C39.71 23.333 40.942 24.384 42.26 25.334C43.579 26.286 44.966 27.123 46.423 27.847C47.879 28.57 49.384 29.17 50.938 29.647C52.492 30.125 54.074 30.472 55.685 30.689C42.41 32.511 31.874 43.047 30.054 56.322Z" fill="#191919"/>
</g>
<defs>
<clipPath id="clip0_1_419">
<rect width="60" height="60" fill="white" transform="translate(0.0539551 0.688965)"/>
</clipPath>
</defs>
</svg>
