<svg width="61" height="61" viewBox="0 0 61 61" fill="none" xmlns="http://www.w3.org/2000/svg">
<path d="M59.9041 29.6751C59.8041 29.6331 59.7141 29.6501 59.6381 29.7271L50.3711 39.0321V20.1771C50.3711 20.0691 50.3201 19.9941 50.2191 19.9531C50.1191 19.9101 50.0301 19.9281 49.9541 20.0051L40.6871 29.3101V10.4551C40.6791 10.3531 40.6271 10.2821 40.5341 10.2461C40.4381 10.2081 40.3541 10.2241 40.2791 10.2931L31.0121 19.5981V0.743072C31.0091 0.637072 30.9591 0.563072 30.8621 0.522072C30.7641 0.481072 30.6761 0.497072 30.5991 0.571072L0.124073 31.1841C0.0510735 31.2611 0.0350735 31.3491 0.0760735 31.4461C0.117073 31.5451 0.190073 31.5951 0.296073 31.5971H19.0631L9.80707 40.9011C9.73007 40.9781 9.71307 41.0681 9.75407 41.1681C9.79607 41.2691 9.87107 41.3191 9.97907 41.3191H28.7421L19.4831 50.6241C19.4071 50.7021 19.3901 50.7901 19.4301 50.8911C19.4721 50.9911 19.5461 51.0411 19.6551 51.0411H38.4221L29.1611 60.3461C29.0861 60.4251 29.0671 60.5131 29.1101 60.6131C29.1501 60.7141 29.2251 60.7641 29.3331 60.7641H59.8101C59.8771 60.7641 59.9351 60.7401 59.9821 60.6931C60.0301 60.6451 60.0541 60.5881 60.0541 60.5191V29.9111C60.0581 29.7981 60.0081 29.7191 59.9041 29.6751ZM0.886074 31.1071L30.5291 1.33507V20.0881L19.5511 31.1071H0.886074ZM30.5291 20.7711V31.1071H20.2401L30.5291 20.7711ZM10.5651 40.8311L19.7521 31.5971H30.7731C30.8401 31.5971 30.8981 31.5731 30.9451 31.5261C30.9931 31.4771 31.0171 31.4191 31.0171 31.3521V20.2861L40.2091 11.0531V29.8041L29.2331 40.8311H10.5651ZM40.2091 30.4951V40.8291H29.9191L40.2091 30.4951ZM20.2431 50.5501L29.4321 41.3211H40.4521C40.5201 41.3211 40.5761 41.2971 40.6241 41.2481C40.6711 41.2011 40.6961 41.1431 40.6961 41.0761V30.0051L49.8861 20.7711V39.5221L38.9131 50.5501H20.2431ZM49.8861 40.2161V50.5501H39.5991L49.8861 40.2161ZM59.5661 60.2691H29.9271L39.1141 51.0401H50.1301C50.1981 51.0401 50.2551 51.0161 50.3041 50.9681C50.3511 50.9211 50.3741 50.8631 50.3741 50.7951V39.7261L59.5661 30.4951V60.2691Z" fill="#191919"/>
</svg>
