<svg width="61" height="59" viewBox="0 0 61 59" fill="none" xmlns="http://www.w3.org/2000/svg">
<path d="M60.0938 23.772C60.0938 10.941 49.6138 0.5 36.7337 0.5C35.8407 0.5 34.9487 0.551 34.0607 0.654C33.1707 0.755 32.2918 0.908 31.4198 1.111C30.5487 1.315 29.6937 1.567 28.8517 1.868C28.0098 2.168 27.1877 2.517 26.3867 2.913C25.5837 3.307 24.8088 3.748 24.0578 4.232C23.3068 4.715 22.5858 5.241 21.8958 5.808C21.2057 6.374 20.5508 6.978 19.9298 7.621C19.3088 8.263 18.7277 8.938 18.1857 9.646C15.5917 11.184 13.3787 13.145 11.5457 15.531C10.6767 16.045 9.84475 16.61 9.05075 17.23C8.25575 17.85 7.50475 18.52 6.79775 19.237C6.09075 19.953 5.43275 20.713 4.82375 21.515C4.21575 22.317 3.65975 23.154 3.16075 24.028C2.66075 24.902 2.21975 25.803 1.83775 26.733C1.45475 27.665 1.13375 28.615 0.87575 29.587C0.61575 30.559 0.42175 31.543 0.29075 32.54C0.16075 33.537 0.09575 34.538 0.09375 35.545C0.09375 48.376 10.5738 58.815 23.4538 58.815C24.3488 58.815 25.2388 58.764 26.1287 58.663C27.0168 58.56 27.8958 58.407 28.7677 58.205C29.6388 58.002 30.4938 57.75 31.3358 57.448C32.1777 57.147 32.9998 56.8 33.8008 56.404C34.6038 56.009 35.3787 55.569 36.1297 55.085C36.8807 54.601 37.6018 54.076 38.2918 53.509C38.9818 52.942 39.6368 52.337 40.2578 51.696C40.8787 51.054 41.4598 50.378 42.0018 49.669C44.5938 48.132 46.8078 46.171 48.6418 43.784C49.5107 43.272 50.3428 42.705 51.1367 42.085C51.9317 41.465 52.6828 40.797 53.3898 40.079C54.0968 39.362 54.7547 38.602 55.3638 37.802C55.9718 36.999 56.5277 36.161 57.0267 35.288C57.5267 34.414 57.9678 33.512 58.3498 32.582C58.7327 31.652 59.0537 30.701 59.3117 29.729C59.5717 28.757 59.7658 27.772 59.8968 26.775C60.0268 25.778 60.0918 24.777 60.0938 23.772ZM17.2997 10.875C16.7197 11.741 16.2008 12.642 15.7408 13.578C14.7578 13.922 13.8027 14.328 12.8737 14.8C14.1777 13.3 15.6547 11.992 17.2997 10.875ZM36.7277 46.476C24.1607 46.476 13.9358 36.289 13.9358 23.769C13.9358 22.085 14.1218 20.422 14.4958 18.779C14.8678 17.135 15.4188 15.554 16.1478 14.034C18.5168 13.233 20.9528 12.835 23.4538 12.838C36.0187 12.838 46.2458 23.023 46.2458 35.545C46.2477 37.228 46.0618 38.894 45.6888 40.537C45.3167 42.18 44.7677 43.763 44.0387 45.283C41.6707 46.083 39.2347 46.481 36.7337 46.479L36.7277 46.476ZM43.6758 45.988C43.0798 47.13 42.3917 48.213 41.6107 49.238C39.8657 50.263 38.0148 51.04 36.0578 51.571C34.1027 52.101 32.1118 52.365 30.0858 52.362C17.5177 52.362 7.29375 42.177 7.29375 29.655C7.29275 28.428 7.39075 27.207 7.58975 25.995C7.78775 24.783 8.08375 23.595 8.47775 22.43C8.87075 21.266 9.35575 20.141 9.93275 19.056C10.5117 17.97 11.1727 16.939 11.9187 15.961C13.0278 15.31 14.1857 14.757 15.3897 14.302C14.0387 17.314 13.3647 20.469 13.3658 23.768C13.3658 36.599 23.8468 47.04 36.7257 47.04C39.0988 47.043 41.4188 46.693 43.6838 45.99L43.6758 45.988ZM46.8037 35.542C46.8037 22.71 36.3237 12.269 23.4447 12.269C21.0747 12.268 18.7598 12.618 16.4958 13.321C17.0938 12.181 17.7817 11.096 18.5607 10.072C20.3067 9.047 22.1588 8.269 24.1138 7.74C26.0688 7.209 28.0608 6.945 30.0858 6.949C42.6528 6.949 52.8778 17.134 52.8778 29.654C52.8797 30.881 52.7808 32.102 52.5827 33.314C52.3837 34.528 52.0877 35.716 51.6958 36.88C51.3018 38.045 50.8167 39.169 50.2388 40.255C49.6618 41.341 48.9987 42.372 48.2528 43.35C47.1437 44.001 45.9857 44.552 44.7817 45.007C46.1348 41.998 46.8117 38.844 46.8117 35.545L46.8037 35.542ZM23.4538 58.25C10.8858 58.25 0.66175 48.063 0.66175 35.545C0.66175 34.621 0.71775 33.702 0.83075 32.785C0.94275 31.869 1.11175 30.964 1.33575 30.068C1.55975 29.171 1.83775 28.292 2.16775 27.431C2.49975 26.568 2.88275 25.73 3.31775 24.914C3.75075 24.099 4.23275 23.313 4.76275 22.556C5.29275 21.799 5.86875 21.078 6.48675 20.391C7.10575 19.704 7.76475 19.056 8.46275 18.45C9.15975 17.842 9.89375 17.28 10.6597 16.761C9.37775 18.67 8.40275 20.721 7.73375 22.919C7.06575 25.115 6.73275 27.361 6.73575 29.657C6.73575 42.489 17.2137 52.929 30.0938 52.929C31.9338 52.931 33.7458 52.719 35.5358 52.291C37.3237 51.864 39.0368 51.234 40.6758 50.401C40.1427 51.015 39.5788 51.599 38.9827 52.154C38.3887 52.706 37.7648 53.227 37.1138 53.714C36.4618 54.202 35.7858 54.652 35.0868 55.066C34.3857 55.482 33.6668 55.857 32.9248 56.195C32.1838 56.533 31.4277 56.829 30.6537 57.086C29.8807 57.343 29.0978 57.558 28.3008 57.731C27.5048 57.904 26.7008 58.034 25.8908 58.121C25.0808 58.208 24.2688 58.25 23.4538 58.25ZM42.8797 48.439C43.4618 47.574 43.9808 46.672 44.4388 45.736C45.4258 45.393 46.3838 44.987 47.3138 44.515C46.0098 46.015 44.5327 47.322 42.8877 48.439H42.8797ZM49.5207 42.554C50.8027 40.646 51.7788 38.593 52.4468 36.397C53.1138 34.199 53.4478 31.953 53.4458 29.657C53.4458 16.825 42.9668 6.388 30.0858 6.388C28.2478 6.385 26.4338 6.596 24.6458 7.025C22.8558 7.452 21.1438 8.081 19.5058 8.914C20.0378 8.301 20.6017 7.716 21.1978 7.162C21.7938 6.607 22.4178 6.087 23.0688 5.6C23.7208 5.112 24.3988 4.662 25.0977 4.246C25.7987 3.832 26.5198 3.456 27.2607 3.118C28.0028 2.78 28.7598 2.483 29.5317 2.227C30.3048 1.97 31.0897 1.755 31.8867 1.583C32.6828 1.411 33.4867 1.28 34.2967 1.195C35.1068 1.107 35.9188 1.065 36.7337 1.065C49.2987 1.065 59.5257 11.251 59.5257 23.772C59.5257 24.694 59.4697 25.615 59.3568 26.531C59.2448 27.447 59.0757 28.353 58.8517 29.249C58.6278 30.144 58.3498 31.023 58.0197 31.886C57.6877 32.747 57.3047 33.585 56.8717 34.401C56.4367 35.216 55.9548 36.003 55.4248 36.76C54.8948 37.517 54.3187 38.238 53.7007 38.926C53.0817 39.613 52.4228 40.26 51.7248 40.867C51.0278 41.473 50.2937 42.035 49.5277 42.554H49.5207Z" fill="#191919"/>
</svg>
